<svg version="1.1" id="Layer_1" xmlns="http://www.w3.org/2000/svg" xmlns:xlink="http://www.w3.org/1999/xlink" x="0px" y="0px"
	 width="100%" viewBox="0 0 255 298" enable-background="new 0 0 255 298" xml:space="preserve">
<path fill="#000000" opacity="1.000000" stroke="none" 
	d="
M167.000000,299.000000 
	C111.333336,299.000000 56.166668,299.000000 1.000000,299.000000 
	C1.000000,199.666672 1.000000,100.333336 1.000000,1.000000 
	C86.000000,1.000000 171.000000,1.000000 256.000000,1.000000 
	C256.000000,100.333336 256.000000,199.666672 256.000000,299.000000 
	C226.500000,299.000000 197.000000,299.000000 167.000000,299.000000 
M162.855820,228.313202 
	C165.572601,221.219879 168.298920,214.130203 171.003891,207.032364 
	C174.686646,197.368744 178.314270,187.683899 182.040268,178.037018 
	C184.488281,171.698914 187.396973,165.519562 189.510300,159.075912 
	C192.516922,149.908615 196.565170,141.756302 205.388428,136.720154 
	C206.820831,135.902573 207.417801,133.621262 208.724457,131.488434 
	C194.056839,131.488434 180.928482,131.488434 167.684052,131.488434 
	C167.851257,132.663666 168.033676,133.945755 168.173157,134.926086 
	C170.779968,135.637848 173.114868,136.361816 175.490570,136.908264 
	C183.462692,138.742004 188.066330,145.953171 185.508408,153.721710 
	C182.207550,163.746582 178.424164,173.617081 174.666779,183.484833 
	C173.176041,187.399765 170.376877,187.931152 166.582352,186.004333 
	C161.149796,183.245728 159.244629,178.011337 157.251282,172.995468 
	C150.459763,155.906036 143.949524,138.705032 137.285950,121.564476 
	C126.657242,94.224442 116.010719,66.891258 105.284340,39.589512 
	C104.757950,38.249695 103.397186,37.237690 102.424950,36.073040 
	C101.272705,37.231457 99.599510,38.183346 99.046127,39.579178 
	C90.352028,61.508766 81.746025,83.473824 73.235199,105.475380 
	C65.022957,126.705055 57.061348,148.032394 48.739536,169.218613 
	C45.914211,176.411499 41.653259,182.651031 34.386276,186.410461 
	C33.031902,187.111130 32.550179,189.498596 31.179609,191.991943 
	C45.446587,191.991943 57.930874,192.052933 70.412308,191.892212 
	C71.586609,191.877075 72.742935,190.465698 73.907608,189.702591 
	C72.741798,188.810257 71.582413,187.151398 70.409210,187.141571 
	C54.952145,187.012070 52.822235,179.007294 55.824547,167.627838 
	C58.598137,157.115265 62.562622,146.911148 66.204826,136.642883 
	C66.551537,135.665421 68.675606,134.342178 69.403770,134.628922 
	C75.877861,137.178284 81.188141,141.111343 83.799469,147.957901 
	C89.267120,162.293411 94.771889,176.615051 100.330544,190.915512 
	C112.111633,221.224075 123.916885,251.523361 135.815613,281.785797 
	C136.306335,283.033875 137.715836,284.407715 138.940903,284.699219 
	C139.687546,284.876862 141.338257,283.282318 141.828964,282.155457 
	C143.894913,277.411377 145.694382,272.550415 147.559937,267.720093 
	C152.560440,254.772690 157.544800,241.819061 162.855820,228.313202 
M54.380402,216.684250 
	C54.277306,215.702713 53.972900,214.693451 54.103600,213.744095 
	C54.988045,207.319931 53.774048,206.200470 47.542519,207.779068 
	C47.542519,211.451752 47.542519,215.097992 47.542519,217.531876 
	C49.863819,218.073700 51.307167,218.584763 52.775108,218.669464 
	C53.381767,218.704483 54.041199,217.825104 54.380402,216.684250 
M213.032242,113.934166 
	C214.678070,115.656769 214.678070,115.656769 217.819717,112.007401 
	C218.694031,113.406937 219.522476,114.733055 220.350922,116.059174 
	C220.634995,115.937180 220.919052,115.815186 221.203125,115.693192 
	C221.203125,111.862518 221.203125,108.031845 221.203125,104.201164 
	C220.841507,104.155014 220.479874,104.108856 220.118256,104.062698 
	C219.208298,105.665100 218.298340,107.267502 217.057724,109.452179 
	C216.110794,106.963577 215.542450,105.469925 214.974121,103.976273 
	C214.318314,104.034286 213.662521,104.092308 213.006714,104.150322 
	C213.006714,107.124969 213.006714,110.099617 213.032242,113.934166 
M79.014427,211.843475 
	C79.165894,214.199265 79.317368,216.555069 79.468834,218.910873 
	C80.000648,218.905609 80.532463,218.900360 81.064278,218.895111 
	C81.554466,217.833588 82.044662,216.772079 82.612923,215.541473 
	C84.067451,216.647018 85.340836,217.614883 87.367508,219.155304 
	C87.367508,214.768005 87.367508,211.181259 87.367508,207.594498 
	C87.147293,207.590012 86.927078,207.585510 86.706863,207.581009 
	C86.114525,209.241776 85.522186,210.902542 84.836777,212.824280 
	C82.891106,210.642792 81.436783,209.012207 79.016182,206.298218 
	C79.016182,208.827362 79.016182,209.919937 79.014427,211.843475 
M172.326843,109.684189 
	C173.329086,107.919182 174.331329,106.154182 175.333572,104.389183 
	C175.137238,104.154945 174.940903,103.920715 174.744568,103.686478 
	C173.356033,104.473244 171.967514,105.260002 170.510635,106.085495 
	C169.999496,105.601921 169.284088,104.925079 168.568665,104.248238 
	C168.066208,104.354050 167.563736,104.459854 167.061279,104.565666 
	C167.258270,107.999794 167.002777,111.570328 167.968140,114.772850 
	C168.211685,115.580788 172.358398,115.212151 175.079941,115.411140 
	C174.039093,113.474113 173.208069,111.927597 172.326843,109.684189 
M159.768311,113.727966 
	C158.334763,110.447861 156.901199,107.167747 155.089584,103.022591 
	C153.195877,108.076180 151.793747,111.817924 150.090546,116.363098 
	C154.047028,115.597343 156.976044,115.030457 159.768311,113.727966 
M68.988335,213.147278 
	C68.209373,214.479996 67.430412,215.812729 66.651451,217.145447 
	C66.264824,216.988190 65.878197,216.830917 65.491562,216.673645 
	C65.109253,213.480392 64.726944,210.287125 64.227676,206.117020 
	C61.473820,210.277145 61.300518,217.267075 63.656925,218.396515 
	C65.352867,219.209412 69.412506,219.024841 69.567604,218.477509 
	C70.546471,215.023270 70.728790,211.343307 71.174164,207.737885 
	C70.456139,207.701889 69.738121,207.665894 69.020096,207.629898 
	C69.020096,209.190872 69.020096,210.751831 68.988335,213.147278 
M191.663879,115.447319 
	C190.257401,111.716499 188.850922,107.985680 187.444443,104.254852 
	C187.022919,104.285522 186.601410,104.316185 186.179886,104.346848 
	C184.803589,108.013145 183.427277,111.679443 182.095444,115.227280 
	C185.690643,115.477730 188.364792,115.664017 191.663879,115.447319 
M30.258787,217.522751 
	C33.328579,217.986603 36.398365,218.450470 40.268650,219.035278 
	C38.379990,214.627319 36.782501,210.898941 34.674553,205.979187 
	C32.953854,210.517776 31.754198,213.682037 30.258787,217.522751 
M200.764282,116.056061 
	C203.188080,116.052727 206.485641,116.676903 205.693756,112.760956 
	C205.305847,110.842628 203.067520,109.298500 201.662323,107.579720 
	C202.583923,107.225906 203.866684,106.733437 205.149445,106.240974 
	C204.624512,105.715401 204.099564,105.189819 203.574631,104.664246 
	C202.418823,104.533485 202.418823,104.533485 201.662460,113.578827 
	C200.490234,113.689156 199.267273,113.804260 196.941299,114.023170 
	C198.553970,115.125351 199.252731,115.602921 200.764282,116.056061 
M19.016327,218.863815 
	C20.575041,215.042145 22.133755,211.220474 23.692469,207.398804 
	C23.093781,206.895630 22.495092,206.392441 21.896402,205.889252 
	C21.050917,207.578949 20.205431,209.268631 19.359945,210.958313 
	C18.878260,211.179672 18.396574,211.401016 17.914888,211.622375 
	C17.235600,209.927490 16.556313,208.232620 15.877024,206.537750 
	C15.317880,206.937805 14.758736,207.337860 14.199592,207.737915 
	C14.167042,212.042557 15.881105,215.809860 19.016327,218.863815 
z"/>
<path fill="#202322" opacity="1.000000" stroke="none" 
	d="
M162.695679,228.590546 
	C157.544800,241.819061 152.560440,254.772690 147.559937,267.720093 
	C145.694382,272.550415 143.894913,277.411377 141.828964,282.155457 
	C141.338257,283.282318 139.687546,284.876862 138.940903,284.699219 
	C137.715836,284.407715 136.306335,283.033875 135.815613,281.785797 
	C123.916885,251.523361 112.111633,221.224075 100.330544,190.915512 
	C94.771889,176.615051 89.267120,162.293411 83.799469,147.957901 
	C81.188141,141.111343 75.877861,137.178284 69.403770,134.628922 
	C68.675606,134.342178 66.551537,135.665421 66.204826,136.642883 
	C62.562622,146.911148 58.598137,157.115265 55.824547,167.627838 
	C52.822235,179.007294 54.952145,187.012070 70.409210,187.141571 
	C71.582413,187.151398 72.741798,188.810257 73.907608,189.702576 
	C72.742935,190.465698 71.586609,191.877075 70.412308,191.892212 
	C57.930874,192.052933 45.446587,191.991943 31.179609,191.991943 
	C32.550179,189.498596 33.031902,187.111130 34.386276,186.410461 
	C41.653259,182.651031 45.914211,176.411499 48.739536,169.218613 
	C57.061348,148.032394 65.022957,126.705055 73.235199,105.475380 
	C81.746025,83.473824 90.352028,61.508766 99.046127,39.579178 
	C99.599510,38.183346 101.272705,37.231457 102.424950,36.073036 
	C103.397186,37.237690 104.757950,38.249695 105.284340,39.589512 
	C116.010719,66.891258 126.657242,94.224442 137.285950,121.564476 
	C143.949524,138.705032 150.459763,155.906036 157.251282,172.995468 
	C159.244629,178.011337 161.149796,183.245728 166.582352,186.004333 
	C170.376877,187.931152 173.176041,187.399765 174.666779,183.484833 
	C178.424164,173.617081 182.207550,163.746582 185.508408,153.721710 
	C188.066330,145.953171 183.462692,138.742004 175.490570,136.908264 
	C173.114868,136.361816 170.779968,135.637848 168.173157,134.926086 
	C168.033676,133.945755 167.851257,132.663666 167.684052,131.488434 
	C180.928482,131.488434 194.056839,131.488434 208.724457,131.488434 
	C207.417801,133.621262 206.820831,135.902573 205.388428,136.720154 
	C196.565170,141.756302 192.516922,149.908615 189.510300,159.075912 
	C187.396973,165.519562 184.488281,171.698914 182.040268,178.037018 
	C178.314270,187.683899 174.686646,197.368744 171.003891,207.032364 
	C168.298920,214.130203 165.572601,221.219879 162.695679,228.590546 
M116.908806,125.441437 
	C109.475113,105.578239 102.041420,85.715050 94.436302,65.393791 
	C93.199348,67.678772 91.970970,69.465210 91.210770,71.432549 
	C87.069969,82.148544 83.026039,92.902168 78.985382,103.656601 
	C75.972107,111.676605 73.014374,119.717484 69.503929,128.270981 
	C69.609619,128.398438 69.714424,128.636810 69.821106,128.637650 
	C85.349831,128.760284 100.878716,128.877762 116.407394,128.856262 
	C116.639137,128.855942 116.868484,127.120415 116.908806,125.441437 
M123.073456,193.796692 
	C130.745132,214.180389 138.416809,234.564102 146.088470,254.947800 
	C150.064011,247.908783 152.621490,241.175476 155.228745,234.461502 
	C160.471405,220.961121 165.741196,207.471298 170.813568,193.188049 
	C169.651047,192.793442 168.490524,192.062454 167.325699,192.055573 
	C153.754730,191.975204 140.182983,191.977325 126.611923,192.049637 
	C125.403465,192.056061 124.198433,192.706238 123.073456,193.796692 
M122.746567,140.827911 
	C122.106689,139.138519 121.466812,137.449142 120.849022,135.818069 
	C106.346573,136.434723 103.195297,139.699951 107.689713,152.302307 
	C110.859100,161.189316 114.321404,169.972397 117.453049,178.872223 
	C121.105644,189.252533 119.625534,188.795563 130.818512,185.800308 
	C130.977829,185.757706 131.144913,185.740646 131.300507,185.688278 
	C135.555450,184.256409 137.490021,180.608307 135.912994,176.322815 
	C131.640594,164.712601 127.221077,153.156540 122.746567,140.827911 
z"/>
<path fill="#262827" opacity="1.000000" stroke="none" 
	d="
M54.528519,217.022919 
	C54.041199,217.825104 53.381767,218.704483 52.775108,218.669464 
	C51.307167,218.584763 49.863819,218.073700 47.542519,217.531876 
	C47.542519,215.097992 47.542519,211.451752 47.542519,207.779068 
	C53.774048,206.200470 54.988045,207.319931 54.103600,213.744095 
	C53.972900,214.693451 54.277306,215.702713 54.528519,217.022919 
z"/>
<path fill="#1F1F1F" opacity="1.000000" stroke="none" 
	d="
M213.019470,113.504211 
	C213.006714,110.099617 213.006714,107.124969 213.006714,104.150322 
	C213.662521,104.092308 214.318314,104.034286 214.974121,103.976273 
	C215.542450,105.469925 216.110794,106.963577 217.057724,109.452179 
	C218.298340,107.267502 219.208298,105.665100 220.118256,104.062698 
	C220.479874,104.108856 220.841507,104.155014 221.203125,104.201164 
	C221.203125,108.031845 221.203125,111.862518 221.203125,115.693192 
	C220.919052,115.815186 220.634995,115.937180 220.350922,116.059174 
	C219.522476,114.733055 218.694031,113.406937 217.819717,112.007401 
	C214.678070,115.656769 214.678070,115.656769 213.019470,113.504211 
z"/>
<path fill="#242625" opacity="1.000000" stroke="none" 
	d="
M79.015305,211.427994 
	C79.016182,209.919937 79.016182,208.827362 79.016182,206.298218 
	C81.436783,209.012207 82.891106,210.642792 84.836777,212.824280 
	C85.522186,210.902542 86.114525,209.241776 86.706863,207.581009 
	C86.927078,207.585510 87.147293,207.590012 87.367508,207.594498 
	C87.367508,211.181259 87.367508,214.768005 87.367508,219.155304 
	C85.340836,217.614883 84.067451,216.647018 82.612923,215.541473 
	C82.044662,216.772079 81.554466,217.833588 81.064278,218.895111 
	C80.532463,218.900360 80.000648,218.905609 79.468834,218.910873 
	C79.317368,216.555069 79.165894,214.199265 79.015305,211.427994 
z"/>
<path fill="#252827" opacity="1.000000" stroke="none" 
	d="
M172.351959,110.032631 
	C173.208069,111.927597 174.039093,113.474113 175.079941,115.411140 
	C172.358398,115.212151 168.211685,115.580788 167.968140,114.772850 
	C167.002777,111.570328 167.258270,107.999794 167.061279,104.565666 
	C167.563736,104.459854 168.066208,104.354050 168.568665,104.248238 
	C169.284088,104.925079 169.999496,105.601921 170.510635,106.085495 
	C171.967514,105.260002 173.356033,104.473244 174.744568,103.686478 
	C174.940903,103.920715 175.137238,104.154945 175.333572,104.389183 
	C174.331329,106.154182 173.329086,107.919182 172.351959,110.032631 
z"/>
<path fill="#343636" opacity="1.000000" stroke="none" 
	d="
M159.836685,114.095764 
	C156.976044,115.030457 154.047028,115.597343 150.090546,116.363098 
	C151.793747,111.817924 153.195877,108.076180 155.089584,103.022591 
	C156.901199,107.167747 158.334763,110.447861 159.836685,114.095764 
z"/>
<path fill="#262726" opacity="1.000000" stroke="none" 
	d="
M69.004211,212.730042 
	C69.020096,210.751831 69.020096,209.190872 69.020096,207.629898 
	C69.738121,207.665894 70.456139,207.701889 71.174164,207.737885 
	C70.728790,211.343307 70.546471,215.023270 69.567604,218.477509 
	C69.412506,219.024841 65.352867,219.209412 63.656925,218.396515 
	C61.300518,217.267075 61.473820,210.277145 64.227676,206.117020 
	C64.726944,210.287125 65.109253,213.480392 65.491562,216.673645 
	C65.878197,216.830917 66.264824,216.988190 66.651451,217.145447 
	C67.430412,215.812729 68.209373,214.479996 69.004211,212.730042 
z"/>
<path fill="#313332" opacity="1.000000" stroke="none" 
	d="
M191.351410,115.648811 
	C188.364792,115.664017 185.690643,115.477730 182.095444,115.227280 
	C183.427277,111.679443 184.803589,108.013145 186.179886,104.346848 
	C186.601410,104.316185 187.022919,104.285522 187.444443,104.254852 
	C188.850922,107.985680 190.257401,111.716499 191.351410,115.648811 
z"/>
<path fill="#303332" opacity="1.000000" stroke="none" 
	d="
M30.406664,217.184525 
	C31.754198,213.682037 32.953854,210.517776 34.674553,205.979187 
	C36.782501,210.898941 38.379990,214.627319 40.268650,219.035278 
	C36.398365,218.450470 33.328579,217.986603 30.406664,217.184525 
z"/>
<path fill="#353636" opacity="1.000000" stroke="none" 
	d="
M200.357895,116.068283 
	C199.252731,115.602921 198.553970,115.125351 196.941299,114.023170 
	C199.267273,113.804260 200.490234,113.689156 201.662460,113.578827 
	C202.418823,104.533485 202.418823,104.533485 203.574631,104.664246 
	C204.099564,105.189819 204.624512,105.715401 205.149445,106.240974 
	C203.866684,106.733437 202.583923,107.225906 201.662323,107.579720 
	C203.067520,109.298500 205.305847,110.842628 205.693756,112.760956 
	C206.485641,116.676903 203.188080,116.052727 200.357895,116.068283 
z"/>
<path fill="#353837" opacity="1.000000" stroke="none" 
	d="
M18.766851,219.078644 
	C15.881105,215.809860 14.167042,212.042557 14.199592,207.737915 
	C14.758736,207.337860 15.317880,206.937805 15.877024,206.537750 
	C16.556313,208.232620 17.235600,209.927490 17.914888,211.622375 
	C18.396574,211.401016 18.878260,211.179672 19.359945,210.958313 
	C20.205431,209.268631 21.050917,207.578949 21.896402,205.889252 
	C22.495092,206.392441 23.093781,206.895630 23.692469,207.398804 
	C22.133755,211.220474 20.575041,215.042145 18.766851,219.078644 
z"/>
<path fill="#000000" opacity="1.000000" stroke="none" 
	d="
M170.999802,193.977112 
	C165.741196,207.471298 160.471405,220.961121 155.228745,234.461502 
	C152.621490,241.175476 150.064011,247.908783 146.088470,254.947800 
	C138.416809,234.564102 130.745132,214.180389 123.502022,193.407196 
	C137.693680,193.011414 151.456985,192.967041 165.219620,193.042465 
	C167.148010,193.053024 169.073151,193.651031 170.999802,193.977112 
z"/>
<path fill="#000000" opacity="1.000000" stroke="none" 
	d="
M70.031906,127.749054 
	C73.014374,119.717484 75.972107,111.676605 78.985382,103.656601 
	C83.026039,92.902168 87.069969,82.148544 91.210770,71.432549 
	C91.970970,69.465210 93.199348,67.678772 94.436302,65.393791 
	C102.041420,85.715050 109.475113,105.578239 116.969894,126.249054 
	C116.540260,127.368599 116.048965,127.953827 115.558922,127.952774 
	C100.383179,127.920143 85.207550,127.830177 70.031906,127.749054 
z"/>
<path fill="#000000" opacity="1.000000" stroke="none" 
	d="
M122.803238,141.203461 
	C127.221077,153.156540 131.640594,164.712601 135.912994,176.322815 
	C137.490021,180.608307 135.555450,184.256409 131.300507,185.688278 
	C131.144913,185.740646 130.977829,185.757706 130.818512,185.800308 
	C119.625534,188.795563 121.105644,189.252533 117.453049,178.872223 
	C114.321404,169.972397 110.859100,161.189316 107.689713,152.302307 
	C103.195297,139.699951 106.346573,136.434723 120.849022,135.818069 
	C121.466812,137.449142 122.106689,139.138519 122.803238,141.203461 
z"/>
<path fill="#FCFCFC" opacity="1.000000" stroke="none" 
	d="
M69.767914,128.010010 
	C85.207550,127.830177 100.383179,127.920143 115.558922,127.952774 
	C116.048965,127.953827 116.540260,127.368599 117.064964,126.625687 
	C116.868484,127.120415 116.639137,128.855942 116.407394,128.856262 
	C100.878716,128.877762 85.349831,128.760284 69.821106,128.637650 
	C69.714424,128.636810 69.609619,128.398438 69.767914,128.010010 
z"/>
<path fill="#393C3C" opacity="1.000000" stroke="none" 
	d="
M170.906677,193.582581 
	C169.073151,193.651031 167.148010,193.053024 165.219620,193.042465 
	C151.456985,192.967041 137.693680,193.011414 123.461197,193.037567 
	C124.198433,192.706238 125.403465,192.056061 126.611923,192.049637 
	C140.182983,191.977325 153.754730,191.975204 167.325699,192.055573 
	C168.490524,192.062454 169.651047,192.793442 170.906677,193.582581 
z"/>
</svg>