<svg height="500" viewBox="0 0 48 48" width="500" xmlns="http://www.w3.org/2000/svg"><path d="m42 14-2 26-26 2z" fill="#9b1010"/><path d="m28 28 12 12 2-26z" fill="#b71c1c"/><path d="m24 12.336a22.621 11.664 0 1 0 0 23.328 22.621 11.664 0 1 0 0-23.328z" fill="#c62828" transform="matrix(.70709444 -.70711912 .70711912 .70709444 -9.941125 24.000592)"/><path d="m10 17 7-7 8-4 6 4-3 9-9 8-9 3-4-6z" fill="#e53935"/><path d="m31 10-6-4h11zm11 5-11-5-3 9zm-23 12 13.235 5.235-4.235-13.235zm-9 3 4 12 5-15zm-4-6v11l4-5z" fill="#ff5252"/></svg>