<svg enable-background="new 0 0 500 500" viewBox="0 0 500 500" xmlns="http://www.w3.org/2000/svg"><path d="m155.3 351.9h-14.1c-.5-23.8-1.9-46.1-4.1-67.1h-.1l-21.4 67.1h-10.7l-21.3-67.1h-.1c-1.6 20.1-2.6 42.5-3 67.1h-13c.8-29.9 2.9-58 6.2-84.1h17.5l20.3 61.8h.1l20.4-61.8h16.7c3.7 30.6 5.9 58.7 6.6 84.1" fill="#6a7e91"/><path d="m216.3 289.8c-5.7 31.1-13.3 53.7-22.7 67.8-7.3 10.9-15.3 16.3-24.1 16.3-2.3 0-5.2-.7-8.6-2.1v-7.5c1.7.2 3.6.4 5.9.4 4.1 0 7.4-1.1 9.8-3.4 3-2.7 4.5-5.8 4.5-9.2 0-2.3-1.2-7.1-3.5-14.3l-15.5-48h13.8l11.1 35.9c2.5 8.2 3.5 13.8 3.1 17.1 6.1-16.2 10.3-33.9 12.7-53z" fill="#6a7e91"/><g fill="#fa8a3b"><path d="m403.8 351.9h-40v-84.2h13.5v73.8h26.5z"/><path clip-rule="evenodd" d="m353.3 353.9-15.5-7.6c1.4-1.1 2.7-2.3 3.9-3.8 6.6-7.7 9.9-19.1 9.9-34.3 0-27.8-10.9-41.8-32.8-41.8-10.7 0-19.1 3.5-25.1 10.6-6.6 7.7-9.8 19.1-9.8 34.2 0 14.8 2.9 25.6 8.7 32.5 5.3 6.2 13.3 9.3 24.1 9.3 4 0 7.7-.5 11-1.5l20.1 11.7zm-50.1-18.9c-3.4-5.5-5.1-14.3-5.1-26.4 0-21.2 6.4-31.8 19.3-31.8 6.7 0 11.7 2.5 14.8 7.6 3.4 5.5 5.1 14.2 5.1 26.2 0 21.4-6.4 32-19.3 32-6.7.1-11.6-2.5-14.8-7.6" fill-rule="evenodd"/><path d="m278 328.6c0 7.1-2.6 13-7.8 17.6s-12.3 6.9-21.1 6.9c-8.2 0-16.2-2.6-23.9-7.9l3.6-7.2c6.6 3.3 12.7 5 18.1 5 5.1 0 9-1.1 11.9-3.4 2.9-2.2 4.6-5.4 4.6-9.3 0-5-3.5-9.3-9.9-12.8-5.9-3.2-17.7-10-17.7-10-6.4-4.7-9.6-9.7-9.6-17.9 0-6.8 2.4-12.3 7.2-16.5s11-6.3 18.5-6.3c7.8 0 14.9 2.1 21.3 6.2l-3.3 7.2c-5.5-2.3-10.9-3.5-16.2-3.5-4.3 0-7.6 1-10 3.1-2.3 2.1-3.8 4.7-3.8 8 0 5 3.6 9.3 10.1 13 6 3.2 18.1 10.1 18.1 10.1 6.7 4.5 9.9 9.5 9.9 17.7"/></g><path clip-rule="evenodd" d="m420.7 239.6c-8.1-.2-14.4.6-19.7 2.8-1.5.6-4 .6-4.2 2.5.8.8.9 2.1 1.6 3.3 1.2 2 3.3 4.8 5.3 6.2 2.1 1.6 4.3 3.2 6.5 4.7 4 2.5 8.4 3.9 12.3 6.3 2.2 1.4 4.5 3.2 6.7 4.8 1.1.8 1.8 2.1 3.2 2.6v-.3c-.7-.9-.9-2.2-1.6-3.3-1-1-2-1.9-3.1-2.9-3-4-6.6-7.4-10.6-10.3-3.3-2.2-10.4-5.3-11.7-9l-.2-.2c2.2-.2 4.9-1 7-1.6 3.5-.9 6.6-.7 10.2-1.6 1.6-.4 3.3-.9 4.9-1.4v-.9c-1.8-1.8-3.2-4.3-5.1-6-5.2-4.5-10.9-8.8-16.8-12.5-3.2-2-7.2-3.3-10.6-5.1-1.2-.6-3.2-.9-4-1.9-1.8-2.2-2.9-5.2-4.2-7.8-2.9-5.6-5.8-11.8-8.3-17.7-1.8-4-2.9-7.9-5.2-11.6-10.5-17.3-21.9-27.8-39.3-38-3.8-2.1-8.2-3.1-13-4.2-2.5-.1-5.1-.3-7.6-.4-1.6-.7-3.3-2.6-4.7-3.6-5.8-3.7-20.7-11.6-25-1.1-2.7 6.6 4.1 13.1 6.4 16.5 1.7 2.3 4 5 5.2 7.6.7 1.7.9 3.6 1.6 5.4 1.6 4.5 3.1 9.5 5.3 13.6 1.1 2.1 2.3 4.4 3.8 6.3.8 1.1 2.2 1.6 2.5 3.5-1.4 2-1.5 5.1-2.3 7.6-3.7 11.5-2.2 25.7 3 34.2 1.6 2.5 5.5 8.1 10.7 6 4.6-1.8 3.6-7.6 4.9-12.7.3-1.2.1-2 .7-2.8v.2c1.4 2.8 2.8 5.6 4.2 8.4 3.2 5 8.6 10.2 13.2 13.6 2.4 1.8 4.4 5 7.4 6.1v-.3h-.2c-.6-.9-1.5-1.3-2.3-2-1.8-1.8-3.9-4.1-5.3-6.1-4.3-5.7-8-12-11.4-18.5-1.6-3.2-3.1-6.6-4.4-9.8-.6-1.2-.6-3-1.6-3.7-1.5 2.2-3.8 4.2-4.9 6.9-1.9 4.4-2.1 9.8-2.9 15.4-.4.1-.2 0-.4.2-3.2-.8-4.4-4.2-5.6-7-3-7.2-3.6-18.8-.9-27.2.7-2.1 3.8-8.8 2.5-10.9-.6-1.9-2.6-3-3.8-4.6-1.3-1.9-2.8-4.4-3.7-6.5-2.4-5.7-3.7-12-6.3-17.7-1.2-2.6-3.4-5.4-5.1-7.8-1.9-2.7-4.1-4.7-5.6-7.9-.5-1.1-1.2-3-.4-4.2.2-.8.6-1.1 1.4-1.3 1.3-1.1 5.1.3 6.4.9 3.8 1.5 6.9 3 10.1 5.1 1.4 1 3 2.9 4.8 3.5h2.1c3.3.7 6.9.2 10 1.1 5.4 1.7 10.3 4.3 14.6 7 13.3 8.4 24.3 20.4 31.7 34.8 1.2 2.3 1.7 4.5 2.9 6.9 2.1 5 4.8 10.1 6.9 15 2.1 4.8 4.2 9.7 7.2 13.6 1.5 2.1 7.6 3.2 10.4 4.4 2 .9 5.2 1.7 7 2.8 3.5 2.1 6.9 4.6 10.2 6.9 1.8 1.1 6.9 3.6 7.2 5.7" fill="#6a7e91" fill-rule="evenodd"/><path clip-rule="evenodd" d="m317 151.2c-1.7 0-2.9.2-4.2.5v.2h.2c.8 1.6 2.2 2.7 3.3 4.2.8 1.6 1.5 3.2 2.3 4.9l.2-.2c1.4-1 2.1-2.6 2.1-5.1-.6-.7-.7-1.4-1.2-2.1-.6-1.1-1.9-1.6-2.7-2.4" fill="#6a7e91" fill-rule="evenodd"/><path d="m430.4 351.9h2.1v-10.3h-3.2l-2.6 7-2.8-7h-3v10.3h2v-7.9h.1l2.9 7.8h1.5l2.9-7.8v7.9zm-17 0h2.2v-8.6h2.9v-1.8h-8.2v1.8h3v8.6z" fill="#fa8a3b"/></svg>